<svg xmlns="http://www.w3.org/2000/svg" version="1.1" xmlns:xlink="http://www.w3.org/1999/xlink" xmlns:svgjs="http://svgjs.com/svgjs" width="24" height="24" x="0" y="0" viewBox="0 0 32 32" style="enable-background:new 0 0 512 512" xml:space="preserve" class=""><g><path d="M30 18.35h-5.37l-2.84-8.7L24.48 7c2.2-2.31 2.58-4.21 2.52-5.4A1.7 1.7 0 0 0 25.39 0C24.21-.06 22.31.32 20 2.52l-2.66 2.69L3.5.67a.83.83 0 0 0-.9.33l-.92 1.33a.82.82 0 0 0 .19 1.12l9.8 7.34a52.6 52.6 0 0 0-5.36 6.81l-4.13-.7a.81.81 0 0 0-.91.57l-.35 1.17a.81.81 0 0 0 .43 1l4.08 1.95 2 4.1a.83.83 0 0 0 1 .42l1.18-.35a.82.82 0 0 0 .57-.91l-.7-4.13a54 54 0 0 0 6.81-5.36l2.26 3h-1.49a1.14 1.14 0 0 0-1.13 1.13v11.38A1.14 1.14 0 0 0 17.06 32H30a1.13 1.13 0 0 0 1.13-1.13V19.48A1.13 1.13 0 0 0 30 18.35zm-5 1v2.26l-1.2-.81a.48.48 0 0 0-.54 0l-1.2.81v-2.29H25zm-8.32-5a.49.49 0 0 0-.35-.19.46.46 0 0 0-.37.12c-.2.19-5 4.55-7.31 5.75a.48.48 0 0 0-.26.51l.74 4.33-.91.27L6.23 21a.45.45 0 0 0-.23-.24l-4.12-2 .27-.91 4.33.73a.47.47 0 0 0 .52-.23c1.07-2.07 4.63-6.08 5.7-7.26l.05-.05a.5.5 0 0 0 .12-.37.46.46 0 0 0-.19-.34L2.56 2.76l.77-1.12 14 4.58a.47.47 0 0 0 .49-.12l2.89-2.88c2-2 3.63-2.3 4.62-2.24a.72.72 0 0 1 .69.68c.06 1-.28 2.61-2.23 4.62l-2.89 2.9a.47.47 0 0 0-.12.49l2.84 8.68h-3.94zm13.46 16.52A.16.16 0 0 1 30 31H17.06a.16.16 0 0 1-.16-.16V19.48a.16.16 0 0 1 .16-.16h4v3.17a.49.49 0 0 0 .26.43.48.48 0 0 0 .49 0l1.69-1.13 1.69 1.13a.5.5 0 0 0 .27.08.59.59 0 0 0 .22 0 .49.49 0 0 0 .26-.43v-3.25h4a.16.16 0 0 1 .16.16z" fill="#000000" data-original="#000000"></path><path d="M21.56 28.35H19a.49.49 0 1 0 0 1h2.58a.49.49 0 1 0 0-1zM21.56 26.71H19a.48.48 0 0 0-.49.48.49.49 0 0 0 .49.49h2.58a.49.49 0 0 0 .49-.49.48.48 0 0 0-.51-.48z" fill="#000000" data-original="#000000"></path></g></svg>