<svg xmlns="http://www.w3.org/2000/svg" version="1.1" xmlns:xlink="http://www.w3.org/1999/xlink" xmlns:svgjs="http://svgjs.com/svgjs" width="24" height="24" x="0" y="0" viewBox="0 0 511.999 511.999" style="enable-background:new 0 0 512 512" xml:space="preserve" class=""><g><path d="M509.814 261.499a13.9 13.9 0 0 0-11.789-6.478h-63.4c-11.302 0-20.498 9.195-20.498 20.497 0 .224-.018.444-.044.661v-48.335c0-6.945-5.651-12.596-12.595-12.596h-54.892v-56.151c0-5.349-4.352-9.701-9.701-9.701H206.298c-5.349 0-9.702 4.352-9.702 9.701V280.99h-23.231v-44.341c5.45-.013 9.88-4.449 9.88-9.902v-18.353c0-5.461-4.443-9.904-9.904-9.904h-22.338v-55.219c0-6.184-5.031-11.215-11.216-11.215h-32.232V95.16a7.592 7.592 0 1 0-15.184 0v36.897H60.139c-6.184 0-11.215 5.031-11.215 11.215v55.219h-22.34c-5.461 0-9.904 4.443-9.904 9.904v18.353c0 5.453 4.43 9.89 9.88 9.902v44.341H13.005a12.95 12.95 0 0 0-10.103 4.815 12.92 12.92 0 0 0-2.618 10.856c5.457 25.827 18.672 51.016 38.217 72.843a8.304 8.304 0 0 1 1.965 4.029c.075.4.118.801.135 1.2.002.044.008.089.009.133a8.45 8.45 0 0 1-.052 1.126c-.008.071-.007.143-.017.214a8.335 8.335 0 0 1-.214 1.023c-.024.09-.035.181-.062.27-.125.418-.28.828-.471 1.227l-12.26 25.667c-2.084 4.364-1.789 9.413.791 13.504s7.007 6.533 11.844 6.533h391.392c5.388 0 10.35-3.151 12.64-8.028l66.464-141.48a13.896 13.896 0 0 0-.851-13.424zm-163.219-31.226h52.464v50.718h-52.464v-50.718zm-67.488-65.853h52.464v50.828h-52.464V164.42zm0 65.853h52.464v50.718h-52.464v-50.718zM211.62 164.42h52.464v50.828H211.62V164.42zm0 65.853h52.464v50.718H211.62v-50.718zM63.948 147.081h72.031v51.41H63.948v-51.41zm-32.243 66.434H168.22v8.112H83.259a7.512 7.512 0 1 0 0 15.024h75.082v44.34H41.585v-44.34h6.349a7.512 7.512 0 1 0 0-15.024H31.705v-8.112zm420.26 151.032h-74.468a7.512 7.512 0 1 0 0 15.024h67.41l-14.017 29.837H41.79l11.561-24.205c.239-.5.455-1.006.656-1.517.063-.16.117-.322.177-.482.13-.352.256-.704.368-1.06.063-.198.119-.397.177-.596a22.855 22.855 0 0 0 .411-1.643c.023-.111.054-.222.076-.333h286.955a7.512 7.512 0 1 0 0-15.024H53.137a23.39 23.39 0 0 0-3.443-5.064c-17.421-19.455-28.906-40.795-34.167-63.469l391.043.111c.423 0 1.68-.043 2.083-.111 11.302 0 20.497-9.195 20.497-20.497a5.48 5.48 0 0 1 5.474-5.473h61.735l-44.394 94.502z" fill="#000000" data-original="#000000" class=""></path></g></svg>